<svg version="1.0" xmlns="http://www.w3.org/2000/svg" viewBox="0 0 1500 250">

    <defs>
        <style>
            .fill {
                fill: #888888;
            }
        </style>
    </defs>
    <path class="fill" d="M247.2386,116.6263c-2.1595-2.5163-5.2897-3.9604-8.5895-3.9604H11.3676c-3.3516,0-6.5132,1.4604-8.6747,4.0061
        c-2.1545,2.5376-3.0803,5.8771-2.5437,9.1443c5.4695,35.1768,34.9095,68.2206,71.5996,80.3557
        c4.1219,1.3516,8.8577,2.065,13.6971,2.065h79.125c4.8395,0,9.5763-0.7134,13.7002-2.066
        c36.689-12.126,66.1291-45.1697,71.5956-80.3587C250.3748,122.5115,249.4164,119.1628,247.2386,116.6263z M244.203,119.2309
        c0.1393,0.1624,0.2647,0.3337,0.3885,0.5057c-0.1241-0.1724-0.2498-0.344-0.3895-0.5068c-0.131-0.1527-0.2727-0.2931-0.4142-0.4334
        C243.9297,118.9371,244.0717,119.0779,244.203,119.2309z M245.9134,125.2025c-5.2439,33.7642-33.5762,65.498-68.8933,77.1697
        c-3.7225,1.2206-8.0274,1.8659-12.4492,1.8659h-79.125c-4.4207,0-8.7256-0.6453-12.4461-1.8638
        c-35.3181-11.6829-63.6504-43.4167-68.9014-77.189c-0.1883-1.1441-0.0926-2.2958,0.2456-3.3737
        c-0.3378,1.0777-0.4333,2.229-0.2456,3.3727c5.251,33.7723,33.5833,65.5061,68.9014,77.1891
        c3.7195,1.2185,8.0254,1.8638,12.4461,1.8638h79.125c4.4218,0,8.7267-0.6453,12.4492-1.8659
        c35.3171-11.6717,63.6484-43.4055,68.8933-77.1697c0.0412-0.2679,0.0674-0.5364,0.0791-0.8042
        C245.9808,124.6654,245.9546,124.9342,245.9134,125.2025z" />
    <path class="fill" d="M187.8911,2.4269c0.0333-1.2717-0.9624-2.3345-2.2337-2.3831c-32.5025-1.0624-80.5174,17.0186-76.6448,75.7089
        c-13.8086,8.0779-29.067,13.3672-44.9115,15.5688c-1.2707,0.1917-2.1501,1.371-1.9696,2.6431
        c0.1803,1.2732,1.3513,2.1621,2.6257,1.9942c5.2576-0.738,10.4648-1.7987,15.5924-3.1785
        c13.0897-3.6691,25.5897-9.1853,37.1221-16.3834c12.2205-7.9318,22.9222-17.9874,31.5998-29.689
        c0.5746-0.7588,0.9006-1.3928,1.4525-2.0839c0.8504-0.8249,2.1784-0.8944,3.1109-0.1633c0.9315,0.731,1.1809,2.0381,0.5821,3.0595
        c-8.3395,11.9151-18.7574,22.231-30.7546,30.4537c-7.3773,4.7871-5.7303,3.387,2.0262,5.2529
        C168.947,89.8847,187.2889,54.8605,187.8911,2.4269" />
    <path class="fill" d="M307.7666,205.6914l24.6865-156.1401h38.8242l-24.6865,156.1401H307.7666z M401.6611,207.8018
        c-4.0811,0-8.0176-0.8447-11.8154-2.5322c-3.7979-1.6885-7.5273-4.1475-11.1836-7.3848
        c-3.6592-3.2344-7.3848-7.1748-11.1826-11.8164l-18.5684-24.0537l7.3857-40.5122l24.6865,27.6411
        c4.9219,5.6279,9.1787,9.8115,12.7656,12.5547c3.5869,2.7422,6.8213,4.6416,9.7061,5.6963
        c2.8818,1.0557,5.7295,1.7939,8.5449,2.2158c0.7031,0.1416,1.4053,0.2109,2.1104,0.2109c0.7021,0,1.4775-0.0693,2.3213-0.2109
        l-5.4863,36.5029c-1.5498,0.7021-3.0957,1.1602-4.6416,1.3721C404.7539,207.6963,403.208,207.8018,401.6611,207.8018z
         M380.3506,153.3633l-23.8428-18.7793c3.6562-3.2344,7.1016-6.5742,10.3389-10.022c3.2344-3.4453,6.1514-6.9961,8.7559-10.6558
        c2.6016-3.6562,4.9922-7.5957,7.1748-11.8159c2.1787-4.2197,4.042-8.8618,5.5908-13.9258l40.0898,2.5317
        c-2.3926,6.894-6.0127,14.0679-10.8662,21.522c-4.8525,7.4575-10.4805,14.77-16.8799,21.9438
        C394.3096,141.3359,387.5244,147.7383,380.3506,153.3633z" />
    <path class="fill" d="M475.0898,90.2744l-1.8994,13.082c4.2207-3.7979,7.9824-6.7852,11.2891-8.9678c3.3027-2.1792,6.4678-3.7617,9.4951-4.7471
        c3.0225-0.9824,6.1514-1.4771,9.3887-1.4771c2.249,0,4.4648,0.1777,6.6465,0.5273c2.1797,0.353,4.3955,0.9497,6.6465,1.7935
        l-11.6045,37.3467c-2.3936-0.5605-4.7148-1.0186-6.9629-1.3711c-2.252-0.3496-4.293-0.5273-6.1191-0.5273
        c-2.9541,0-5.9805,0.4219-9.0732,1.2656c-3.0957,0.8438-6.541,2.3936-10.3389,4.6426l-11.8154,73.8496h-38.6133l18.5674-115.417
        H475.0898z" />
    <path class="fill" d="M599.3691,207.8018c-3.376,0-6.5781-0.459-9.6006-1.3721c-3.0264-0.9131-5.8389-2.2148-8.4404-3.9033
        c-2.6045-1.6875-4.5361-3.7256-5.8027-6.1191c-3.2373,2.252-6.5078,4.2568-9.8115,6.0137
        c-3.3066,1.7607-6.8574,3.0957-10.6553,4.0088s-7.7373,1.3721-11.8154,1.3721c-6.752,0-12.6963-1.5137-17.8301-4.5371
        c-5.1367-3.0234-9.1787-7.5957-12.1328-13.7148c-2.9531-6.1191-4.4307-13.8896-4.4307-23.3154
        c0-17.4404,2.6377-31.8945,7.9131-43.3604c5.2744-11.4634,12.9033-20.1143,22.8926-25.9531
        c9.9863-5.8354,22.0137-8.7563,36.0811-8.7563c4.2207,0,8.6514,0.2109,13.293,0.6328c4.6426,0.4219,9.1787,0.9858,13.6104,1.688
        c4.4307,0.7056,8.6143,1.5132,12.5537,2.4268c3.9365,0.9165,7.4551,1.9351,10.5508,3.0591
        c-2.1104,12.522-3.8711,23.1411-5.2754,31.8608c-1.4082,8.7246-2.5684,15.793-3.4814,21.2061
        c-0.917,5.417-1.583,9.6006-2.0049,12.5547s-0.7051,5.1357-0.8438,6.541c-0.1416,1.4072-0.2109,2.1826-0.2109,2.3203
        c0,1.2666,0.2803,2.252,0.8438,2.9541c0.5605,0.7061,1.4043,1.0557,2.5322,1.0557c0.4219,0,0.9492,0,1.583,0
        c0.6328,0,1.2988-0.0693,2.0039-0.2119l-2.3213,29.54c-2.1094,1.1279-4.958,2.0742-8.5449,2.8486
        C606.4375,207.4121,602.8828,207.8018,599.3691,207.8018z M574.6816,171.0879l8.0186-50.6406
        c-1.5498-0.7021-3.2383-1.1934-5.0645-1.4771c-1.8301-0.2803-3.7285-0.4219-5.6973-0.4219c-4.5029,0-8.5449,1.8662-12.1318,5.5918
        c-3.5869,3.729-6.4355,8.6509-8.5459,14.77s-3.165,13.1875-3.165,21.2051c0,4.7842,1.1602,8.4766,3.4814,11.0781
        c2.3213,2.6045,5.1699,3.9033,8.5459,3.9033c1.5459,0,3.1289-0.2109,4.7471-0.6328c1.6152-0.4229,3.3037-0.9141,5.0645-1.4775
        C571.6914,172.4258,573.2744,171.793,574.6816,171.0879z" />
    <path class="fill" d="M659.0811,207.8018c-9.4258,0-16.5996-2.2852-21.5225-6.8574c-4.9248-4.5703-7.3848-10.583-7.3848-18.041
        c0-1.8262,0.1387-4.1475,0.4219-6.9629c0.2803-2.8125,0.7715-6.3633,1.4775-10.6553c0.7021-4.2891,1.582-9.7393,2.6367-16.3525
        c1.0557-6.6104,2.3906-14.7705,4.0098-24.4761c1.6152-9.7061,3.4814-21.1001,5.5908-34.1821h38.6133
        c-1.5498,8.8618-2.8848,16.7051-4.0088,23.5264c-1.1279,6.8247-2.1104,12.9072-2.9541,18.252
        c-0.8438,5.3477-1.6191,10.0947-2.3213,14.2422c-0.7051,4.1504-1.2656,7.8789-1.6875,11.1826
        c-0.4219,3.3076-0.7754,6.5088-1.0557,9.6006c-0.1416,2.6738,0.4229,4.6426,1.6885,5.9082s3.2344,1.8994,5.9082,1.8994
        c1.8262,0,3.5137-0.1387,5.0635-0.4219c1.5469-0.2803,3.1982-0.7715,4.959-1.4775c1.7568-0.7021,3.3398-1.4043,4.7471-2.1104
        l12.8711-80.6016h38.6133c-2.3936,15.1919-4.4316,27.7134-6.1191,37.5576c-1.6885,9.8477-2.9902,17.6191-3.9033,23.3164
        c-0.917,5.6963-1.583,9.8477-2.0049,12.4482c-0.4219,2.6045-0.6328,4.2568-0.6328,4.959c0,0.7051,0,1.1963,0,1.4766
        c0,1.5498,0.3164,2.7432,0.9492,3.5869c0.6328,0.8447,1.5098,1.2666,2.6377,1.2666c0.4219,0,0.877-0.0332,1.3711-0.1055
        c0.4912-0.0693,1.2305-0.2441,2.2158-0.5283l-2.1104,27.0088c-2.6729,1.9717-5.9805,3.5537-9.917,4.7471
        c-3.9395,1.1934-7.8066,1.7939-11.6045,1.7939c-5.3477,0-9.9893-1.2666-13.9258-3.7988c-3.9404-2.5312-6.6143-5.7656-8.0186-9.7051
        c-3.9395,2.9531-7.8066,5.4521-11.6045,7.4902c-3.7979,2.041-7.6328,3.5537-11.5,4.5361
        C666.71,207.3066,662.8789,207.8018,659.0811,207.8018z" />
    <path class="fill" d="M817.752,171.7207l-2.7432,30.3838c-5.2061,1.8301-10.3389,3.2373-15.4033,4.2197
        c-5.0635,0.9824-10.4111,1.4775-16.0361,1.4775c-5.2051,0-9.9531-0.7754-14.2422-2.3213
        c-4.292-1.5459-7.7012-4.2197-10.2334-8.0176c-2.5322-3.7988-3.7979-9.1426-3.7979-16.0361c0-2.249,0.1055-5.0283,0.3164-8.335
        c0.2109-3.3037,0.5967-6.5049,1.1602-9.6006l7.1748-43.4658h-13.7158l4.8535-27.4302l14.1367-2.3208l8.2295-23.8428h33.9707
        l-3.7979,23.8428h23.4209l-5.0645,29.751h-23.4209l-6.541,40.5117c-0.1416,0.9863-0.2471,1.8994-0.3164,2.7432
        c-0.0723,0.8438-0.1055,1.6191-0.1055,2.3213c0,2.5322,0.666,4.5029,2.0049,5.9082c1.335,1.4072,3.4814,2.1094,6.4355,2.1094
        c1.8262,0,3.7979-0.1748,5.9072-0.5273C812.0547,172.7422,814.6562,172.2842,817.752,171.7207z" />
    <path class="fill" d="M825.9805,250.001l64.9883-200.4497h33.3379L858.8965,250.001H825.9805z" />
    <path class="fill" d="M919.2402,200.2051l9.0723-28.2734c3.376,1.127,7.207,2.2148,11.5,3.2705c4.2891,1.0547,8.6143,1.8984,12.9766,2.5322
        c4.3584,0.6328,8.2979,0.9492,11.8154,0.9492c2.9541,0,5.3447-0.2803,7.1738-0.8438c1.8271-0.5605,3.1982-1.3359,4.1152-2.3213
        c0.9131-0.9824,1.3711-2.1797,1.3711-3.5869c0-1.6885-0.8105-3.0928-2.4268-4.2207c-1.6182-1.124-3.834-2.1787-6.6465-3.1641
        c-2.8154-0.9834-5.8389-1.9326-9.0723-2.8486c-3.2383-0.9131-6.541-2.1436-9.917-3.6924c-3.376-1.5469-6.4355-3.5156-9.1787-5.9082
        c-2.7432-2.3906-4.959-5.4502-6.6465-9.1787c-1.6885-3.7256-2.5322-8.2627-2.5322-13.6094c0-6.752,1.2295-12.6602,3.6924-17.7241
        c2.46-5.064,5.9414-9.3169,10.4443-12.7656c4.501-3.4453,10.0557-6.0825,16.6689-7.9126
        c6.6104-1.8262,13.9961-2.7427,22.1553-2.7427c7.4541,0,14.2422,0.6001,20.3613,1.7935c6.1191,1.1968,11.5,2.6372,16.1416,4.3252
        l-8.8623,29.1182c-2.9531-1.124-6.2969-2.0737-10.0225-2.8486c-3.7285-0.7715-7.3848-1.335-10.9717-1.688
        c-3.5869-0.3491-6.8574-0.5273-9.8115-0.5273c-3.0957,0-5.5225,0.2471-7.2793,0.7383c-1.7607,0.4946-3.0264,1.2334-3.7979,2.2158
        c-0.7754,0.9858-1.1611,2.1099-1.1611,3.376c0,1.688,0.8086,2.9907,2.4268,3.9028c1.6152,0.917,3.7979,1.7246,6.541,2.4277
        c2.7432,0.7051,5.8027,1.5127,9.1787,2.4258c3.376,0.916,6.7158,2.1465,10.0225,3.6924c3.3037,1.5498,6.3633,3.4131,9.1787,5.5918
        c2.8115,2.1826,5.0273,5.1357,6.6465,8.8623c1.6152,3.7285,2.4268,8.4062,2.4268,14.0312c0,6.3301-0.917,11.8887-2.7432,16.6689
        c-1.8301,4.7832-4.3984,8.793-7.7021,12.0273c-3.3066,3.2373-7.1045,5.875-11.3936,7.9121
        c-4.293,2.041-9.0732,3.4814-14.3477,4.3252c-5.2754,0.8447-10.5869,1.2666-15.9307,1.2666
        c-8.7236,0-16.5635-0.6699-23.5264-2.0049C932.2158,204.4619,925.5693,202.5986,919.2402,200.2051z" />
    <path class="fill" d="M1052.1689,207.8018c-9.4258,0-16.5996-2.2852-21.5225-6.8574c-4.9248-4.5703-7.3848-10.583-7.3848-18.041
        c0-1.8262,0.1387-4.1475,0.4219-6.9629c0.2803-2.8125,0.7715-6.3633,1.4775-10.6553c0.7021-4.2891,1.582-9.7393,2.6367-16.3525
        c1.0557-6.6104,2.3906-14.7705,4.0098-24.4761c1.6152-9.7061,3.4814-21.1001,5.5908-34.1821h38.6133
        c-1.5498,8.8618-2.8848,16.7051-4.0088,23.5264c-1.1279,6.8247-2.1104,12.9072-2.9541,18.252
        c-0.8438,5.3477-1.6191,10.0947-2.3213,14.2422c-0.7051,4.1504-1.2656,7.8789-1.6875,11.1826
        c-0.4219,3.3076-0.7754,6.5088-1.0557,9.6006c-0.1416,2.6738,0.4229,4.6426,1.6885,5.9082s3.2344,1.8994,5.9082,1.8994
        c1.8262,0,3.5137-0.1387,5.0635-0.4219c1.5469-0.2803,3.1982-0.7715,4.959-1.4775c1.7568-0.7021,3.3398-1.4043,4.7471-2.1104
        l12.8711-80.6016h38.6133c-2.3936,15.1919-4.4316,27.7134-6.1191,37.5576c-1.6885,9.8477-2.9902,17.6191-3.9033,23.3164
        c-0.917,5.6963-1.583,9.8477-2.0049,12.4482c-0.4219,2.6045-0.6328,4.2568-0.6328,4.959c0,0.7051,0,1.1963,0,1.4766
        c0,1.5498,0.3164,2.7432,0.9492,3.5869c0.6328,0.8447,1.5098,1.2666,2.6377,1.2666c0.4219,0,0.877-0.0332,1.3711-0.1055
        c0.4912-0.0693,1.2305-0.2441,2.2158-0.5283l-2.1104,27.0088c-2.6729,1.9717-5.9805,3.5537-9.917,4.7471
        c-3.9395,1.1934-7.8066,1.7939-11.6045,1.7939c-5.3477,0-9.9893-1.2666-13.9258-3.7988c-3.9404-2.5312-6.6143-5.7656-8.0186-9.7051
        c-3.9395,2.9531-7.8066,5.4521-11.6045,7.4902c-3.7979,2.041-7.6328,3.5537-11.5,4.5361
        C1059.7979,207.3066,1055.9668,207.8018,1052.1689,207.8018z" />
    <path class="fill" d="M1131.5039,250.001l25.3193-159.9375h35.2373l-0.6328,9.4951c4.7803-3.5146,9.7061-6.2939,14.7695-8.3345
        c5.0645-2.0376,10.7617-3.0596,17.0918-3.0596c7.4541,0,13.5732,1.5132,18.3564,4.5361c4.7803,3.0269,8.335,7.5962,10.6553,13.7153
        c2.3213,6.1187,3.4814,13.54,3.4814,22.2598c0,10.9727-1.1963,21.2422-3.5869,30.8066
        c-2.3936,9.5674-6.0859,17.9346-11.0771,25.1094c-4.9951,7.1738-11.3613,12.8018-19.0957,16.8799
        c-7.7373,4.0811-16.5996,6.1191-26.5859,6.1191c-3.7979,0-7.2793-0.248-10.4443-0.7393c-3.165-0.4941-5.8027-0.8799-7.9121-1.1602
        l-6.9639,44.3096H1131.5039z M1191.8496,178.2617c4.3584,0,8.124-1.2666,11.2881-3.7979c3.165-2.5322,5.7305-5.7666,7.7021-9.7061
        c1.9678-3.9365,3.4092-8.2617,4.3252-12.9766c0.9131-4.7109,1.3721-9.3174,1.3721-13.8203c0-5.9082-0.8809-10.0918-2.6377-12.5552
        c-1.7607-2.4595-4.8203-3.6924-9.1787-3.6924c-2.3936,0-4.8896,0.353-7.4902,1.0552c-2.6045,0.7056-5.0312,1.6187-7.2803,2.7427
        l-8.0176,51.062c1.4043,0.4219,2.9541,0.8115,4.6416,1.1611C1188.2627,178.0869,1190.0195,178.2617,1191.8496,178.2617z" />
    <path class="fill" d="M1251.5625,250.001l25.3193-159.9375h35.2373l-0.6328,9.4951c4.7803-3.5146,9.7061-6.2939,14.7695-8.3345
        c5.0645-2.0376,10.7617-3.0596,17.0918-3.0596c7.4541,0,13.5732,1.5132,18.3564,4.5361c4.7803,3.0269,8.335,7.5962,10.6553,13.7153
        c2.3213,6.1187,3.4814,13.54,3.4814,22.2598c0,10.9727-1.1963,21.2422-3.5869,30.8066
        c-2.3936,9.5674-6.0859,17.9346-11.0771,25.1094c-4.9951,7.1738-11.3613,12.8018-19.0957,16.8799
        c-7.7373,4.0811-16.5996,6.1191-26.5859,6.1191c-3.7979,0-7.2793-0.248-10.4443-0.7393c-3.165-0.4941-5.8027-0.8799-7.9121-1.1602
        l-6.9639,44.3096H1251.5625z M1311.9082,178.2617c4.3584,0,8.124-1.2666,11.2881-3.7979c3.165-2.5322,5.7305-5.7666,7.7021-9.7061
        c1.9678-3.9365,3.4092-8.2617,4.3252-12.9766c0.9131-4.7109,1.3721-9.3174,1.3721-13.8203c0-5.9082-0.8809-10.0918-2.6377-12.5552
        c-1.7607-2.4595-4.8203-3.6924-9.1787-3.6924c-2.3936,0-4.8896,0.353-7.4902,1.0552c-2.6045,0.7056-5.0312,1.6187-7.2803,2.7427
        l-8.0176,51.062c1.4043,0.4219,2.9541,0.8115,4.6416,1.1611C1308.3213,178.0869,1310.0781,178.2617,1311.9082,178.2617z" />
    <path class="fill" d="M1414.665,142.6025c2.248,0.2832,4.8857,0.3164,7.9121,0.1055c3.0234-0.2109,5.8027-0.4551,8.335-0.7393
        c7.1738-1.4043,12.7285-3.6191,16.6689-6.6465c3.9365-3.0225,5.835-6.6465,5.6963-10.8657c0-2.6704-0.5996-4.5698-1.793-5.6973
        c-1.1973-1.124-3.2705-1.688-6.2246-1.688c-4.3613,0-8.3711,1.5825-12.0273,4.7476c-3.6592,3.165-6.4717,7.7017-8.4395,13.6089
        c-1.9717,5.9082-3.0264,12.8711-3.165,20.8896c0,5.2061,0.666,9.2148,2.0039,12.0273c1.3359,2.8154,3.5146,4.7139,6.541,5.6963
        c3.0234,0.9863,7.1377,1.4775,12.3438,1.4775c2.249,0,5.0645-0.2109,8.4404-0.6328s7.0684-1.0195,11.0771-1.7939
        c4.0088-0.7715,8.1924-1.8623,12.5547-3.2705l4.2197,30.8057c-6.6133,2.5322-13.7148,4.3623-21.3105,5.4863
        c-7.5967,1.124-15.0537,1.6885-22.3662,1.6885c-10.9717,0-20.3613-1.8301-28.1689-5.4863
        c-7.8066-3.6562-13.751-8.9678-17.8291-15.9307c-4.082-6.9629-6.1191-15.2969-6.1191-25.0029
        c0-10.5498,1.4043-20.1846,4.2197-28.9072c2.8125-8.7202,7.0322-16.4219,12.6602-23.1045
        c5.625-6.6797,12.624-11.8853,20.9951-15.6143c8.3672-3.7256,17.9678-5.5913,28.8008-5.5913c8.8623,0,16.458,1.2656,22.7881,3.7979
        s11.1465,6.0859,14.4541,10.6553c3.3027,4.5728,4.958,9.9536,4.958,16.1416c0,11.5356-4.3975,21.1001-13.1875,28.6958
        c-8.793,7.5957-20.9941,12.5908-36.6084,14.9814c-5.7695,0.8438-11.0449,1.3389-15.8252,1.4766
        c-4.7832,0.1416-9.3564,0.0732-13.7148-0.2109L1414.665,142.6025z" />
</svg>
